<!-- Generator: Adobe Illustrator 23.0.2, SVG Export Plug-In  -->
<svg version="1.1" xmlns="http://www.w3.org/2000/svg" xmlns:xlink="http://www.w3.org/1999/xlink" x="0px" y="0px"
	 width="181.49px" height="230.01px" viewBox="0 0 181.49 230.01" style="enable-background:new 0 0 181.49 230.01;"
	 xml:space="preserve">
<style type="text/css">
	.st0{fill:none;stroke:#FFFFFF;stroke-width:2;stroke-miterlimit:10;}
	.st1{fill:none;stroke:#FFFFFF;stroke-width:2;stroke-miterlimit:10;stroke-dasharray:11.7047,11.7047;}
	.st2{fill:#FFFFFF;}
</style>
<defs>
</defs>
<g>
	<g>
		<path class="st0" d="M175.58,2.34c-0.41,1.37-1.01,3.31-1.78,5.73"/>
		<path class="st1" d="M170.14,19.19c-13.65,40.17-48.5,129.24-88.05,125.36c-51-5,51.82-96.35,42-15
			c-6.48,53.67-64.39,81.57-112.43,96.21"/>
		<path class="st0" d="M6.04,227.42c-1.95,0.56-3.87,1.1-5.78,1.62"/>
		<g>
			<path class="st2" d="M162.4,12.62c0.36,0.42,0.99,0.47,1.41,0.11l11.62-9.95l4.1,14.74c0.15,0.53,0.7,0.84,1.23,0.7
				c0.53-0.15,0.84-0.7,0.7-1.23l-4.52-16.25c-0.09-0.33-0.35-0.59-0.67-0.69s-0.68-0.03-0.94,0.2L162.5,11.21
				c-0.15,0.13-0.25,0.29-0.31,0.47C162.1,11.99,162.17,12.35,162.4,12.62z"/>
		</g>
	</g>
</g>
</svg>
